<svg width="36" height="36" viewBox="0 0 36 36" fill="none" xmlns="http://www.w3.org/2000/svg">
<g clip-path="url(#clip0_88_21)">
<path d="M10.8073 23.7033H30.6433C32.8925 23.7033 34.7274 21.8684 34.7274 19.6192V11.2734C34.7274 11.266 34.7274 11.2512 34.7274 11.2438C34.7274 11.2216 34.7274 11.2068 34.7274 11.1846C34.7274 11.1698 34.7274 11.155 34.72 11.1402C34.72 11.1254 34.7126 11.1032 34.7126 11.0884C34.7126 11.0736 34.7052 11.0588 34.7052 11.044C34.6978 11.0292 34.6978 11.0144 34.6904 10.9922C34.683 10.9774 34.683 10.9626 34.6756 10.9478C34.6682 10.933 34.6682 10.9182 34.6608 10.9034C34.6534 10.8886 34.646 10.8738 34.6386 10.8516C34.6312 10.8369 34.6238 10.8221 34.6164 10.8147C34.609 10.7999 34.6016 10.7851 34.5942 10.7703C34.5868 10.7555 34.5794 10.7481 34.572 10.7333C34.5646 10.7185 34.5498 10.7037 34.5424 10.6889C34.535 10.6741 34.5276 10.6667 34.5128 10.6519C34.5054 10.6371 34.4906 10.6297 34.4832 10.6149C34.4758 10.6001 34.461 10.5927 34.4537 10.5779C34.4463 10.5631 34.4315 10.5557 34.4241 10.5483C34.4093 10.5335 34.4019 10.5261 34.3871 10.5113C34.3723 10.5039 34.3649 10.4891 34.3501 10.4817C34.3353 10.4743 34.3205 10.4595 34.3057 10.4521C34.2909 10.4447 34.2835 10.4373 34.2687 10.4299C34.2539 10.4225 34.2391 10.4151 34.2243 10.4003C34.2095 10.3929 34.1947 10.3855 34.1799 10.3781C34.1651 10.3707 34.1503 10.3633 34.1355 10.3559C34.1207 10.3485 34.1059 10.3411 34.0911 10.3337C34.0763 10.3263 34.0615 10.3263 34.0467 10.3189C34.0319 10.3115 34.0097 10.3041 33.9949 10.3041C33.9801 10.3041 33.9653 10.2967 33.9579 10.2967C33.9357 10.2893 33.9209 10.2893 33.8987 10.2893C33.8913 10.2893 33.8839 10.2819 33.8692 10.2819L8.72821 6.81193V3.30493C8.72821 3.26793 8.72821 3.23094 8.72081 3.20134C8.72081 3.19395 8.72081 3.18655 8.71341 3.17175C8.71341 3.14955 8.70601 3.12736 8.70601 3.10516C8.69861 3.08296 8.69861 3.06817 8.69121 3.04597C8.69121 3.03117 8.68382 3.02377 8.68382 3.00898C8.67642 2.98678 8.66902 2.96458 8.66162 2.94239C8.66162 2.93499 8.65422 2.92019 8.65422 2.91279C8.64682 2.8906 8.63942 2.8758 8.62463 2.8536C8.61723 2.8462 8.61723 2.83141 8.60983 2.82401C8.60243 2.80921 8.59503 2.79441 8.58023 2.77962C8.57283 2.76482 8.56544 2.75742 8.55804 2.74262C8.55064 2.72782 8.54324 2.72043 8.53584 2.70563C8.52844 2.69083 8.51364 2.67603 8.50625 2.66124C8.49885 2.65384 8.49145 2.64644 8.48405 2.63904C8.46925 2.62424 8.45445 2.60944 8.43966 2.59465C8.43226 2.58725 8.42486 2.57985 8.41746 2.57245C8.40266 2.55765 8.38787 2.54286 8.36567 2.52806C8.35827 2.52066 8.34347 2.51326 8.33607 2.50586C8.32128 2.49106 8.30648 2.48367 8.29168 2.46887C8.26949 2.45407 8.24729 2.43927 8.23249 2.43187C8.22509 2.42448 8.21769 2.42448 8.2103 2.41708C8.1807 2.40228 8.14371 2.38748 8.11411 2.37269L2.66124 0.0790741C2.15072 -0.13549 1.56622 0.10127 1.35166 0.611784C1.13709 1.1223 1.37385 1.7068 1.88437 1.92136L6.72315 3.96342V8.49145V9.20913V14.7138V19.634V25.8489C6.72315 27.9206 8.27688 29.6371 10.2819 29.896C9.91941 30.5027 9.70484 31.213 9.70484 31.9677C9.70484 34.1947 11.5175 36 13.7372 36C15.9568 36 17.7695 34.1873 17.7695 31.9677C17.7695 31.2278 17.5697 30.5249 17.2146 29.933H26.1966C25.8415 30.5323 25.6417 31.2278 25.6417 31.9677C25.6417 34.1947 27.4544 36 29.6741 36C31.8937 36 33.7064 34.1873 33.7064 31.9677C33.7064 29.748 31.8937 27.9354 29.6741 27.9354H10.8073C9.65305 27.9354 8.72081 26.9957 8.72081 25.8489V23.141C9.32751 23.4961 10.0452 23.7033 10.8073 23.7033ZM15.7792 31.9603C15.7792 33.0849 14.8618 33.9949 13.7446 33.9949C12.6273 33.9949 11.7099 33.0775 11.7099 31.9603C11.7099 30.8431 12.6273 29.9256 13.7446 29.9256C14.8618 29.9256 15.7792 30.8357 15.7792 31.9603ZM31.7161 31.9603C31.7161 33.0849 30.7987 33.9949 29.6815 33.9949C28.5642 33.9949 27.6468 33.0775 27.6468 31.9603C27.6468 30.8431 28.5642 29.9256 29.6815 29.9256C30.7987 29.9256 31.7161 30.8357 31.7161 31.9603ZM30.6433 21.7056H10.8073C9.65305 21.7056 8.72081 20.766 8.72081 19.6192V14.699V9.19433V8.82439L32.7297 12.1316V19.6118C32.7297 20.7734 31.7901 21.7056 30.6433 21.7056Z" fill="#B8BEC5"/>
</g>
<defs>
<clipPath id="clip0_88_21">
<rect width="36" height="36" fill="white"/>
</clipPath>
</defs>
</svg>
