<svg width="25" height="25" viewBox="0 0 25 25" fill="none" xmlns="http://www.w3.org/2000/svg">
<path d="M12.5 5.37402C9.94078 5.37402 7.8587 7.4561 7.8587 10.0153C7.8587 12.5745 9.94078 14.6565 12.5 14.6565C15.0591 14.6565 17.1412 12.5745 17.1412 10.0153C17.1412 7.4561 15.0592 5.37402 12.5 5.37402ZM12.5 12.7023C11.0183 12.7023 9.8129 11.4969 9.8129 10.0153C9.8129 8.53364 11.0183 7.32822 12.5 7.32822C13.9816 7.32822 15.187 8.53364 15.187 10.0153C15.187 11.4969 13.9816 12.7023 12.5 12.7023Z" fill="#B8BEC5"/>
<path d="M12.5 0C6.97749 0 2.48462 4.49292 2.48462 10.0154V10.2922C2.48462 13.0852 4.08589 16.3399 7.24409 19.9657C9.53355 22.5942 11.791 24.4271 11.8859 24.5038L12.5 25L13.1141 24.5039C13.209 24.4271 15.4665 22.5943 17.7559 19.9658C20.9141 16.3399 22.5154 13.0853 22.5154 10.2923V10.0154C22.5154 4.49292 18.0225 0 12.5 0ZM20.5612 10.2923C20.5612 15.0123 14.4796 20.7259 12.5 22.4604C10.5199 20.7253 4.43882 15.0119 4.43882 10.2923V10.0154C4.43882 5.57051 8.05508 1.95425 12.5 1.95425C16.9449 1.95425 20.5612 5.57051 20.5612 10.0154V10.2923V10.2923Z" fill="#B8BEC5"/>
</svg>
